<svg width="793" height="484" viewBox="0 0 793 484" fill="none" xmlns="http://www.w3.org/2000/svg">
<g clip-path="url(#clip0)">
<path d="M328.237 273C323.528 273 319.706 269.178 319.706 264.469C319.706 259.759 323.528 255.938 328.237 255.938H346.608L352.295 221.812H302.643C279.12 221.812 259.987 202.68 259.987 179.156V42.6562C259.987 19.1327 279.12 0 302.643 0H490.331C513.854 0 532.987 19.1327 532.987 42.6562V179.156C532.987 202.68 513.854 221.812 490.331 221.812H440.679L446.366 255.938H464.737C469.446 255.938 473.268 259.759 473.268 264.469C473.268 269.178 469.446 273 464.737 273H328.237ZM429.076 255.938L423.389 221.812H369.585L363.898 255.938H429.076ZM278.551 187.688C282.111 197.686 291.723 204.75 302.643 204.75H490.331C501.251 204.75 510.863 197.686 514.423 187.688H278.551ZM515.925 170.625V42.6562C515.925 28.5399 504.447 17.0625 490.331 17.0625H302.643C288.527 17.0625 277.05 28.5399 277.05 42.6562V170.625H515.925Z" fill="white"/>
</g>
<path d="M9 484V281H784V484" stroke="white" stroke-width="17"/>
<defs>
<clipPath id="clip0">
<rect width="273" height="273" fill="white" transform="translate(260)"/>
</clipPath>
</defs>
</svg>
