<svg width="242" height="242" viewBox="0 0 242 242" fill="none" xmlns="http://www.w3.org/2000/svg">
<g clip-path="url(#clip0)">
<path d="M68.053 242C30.5229 242 -0.00947571 211.468 -0.00947571 173.938V113.438C-0.00947571 78.408 26.55 49.2772 61.0249 45.738C64.5743 19.844 86.9895 0 113.428 0C142.619 0 166.366 23.7463 166.366 52.9375V75.625C166.366 92.3028 179.938 105.875 196.616 105.875C213.293 105.875 226.866 92.3028 226.866 75.625V7.5625C226.866 3.388 230.254 0 234.428 0C238.603 0 241.991 3.388 241.991 7.5625V75.625C241.991 100.642 221.632 121 196.616 121C171.599 121 151.241 100.642 151.241 75.625V52.9375C151.241 32.0852 134.28 15.125 113.428 15.125C95.278 15.125 79.6489 28.3644 76.3012 45.8892C110.151 49.9932 136.116 78.9122 136.116 113.438V173.938C136.116 211.468 105.583 242 68.053 242ZM15.1155 173.938C15.1155 203.129 38.8618 226.875 68.053 226.875C97.2443 226.875 120.991 203.129 120.991 173.938V136.125H15.1155V173.938ZM120.991 121V113.438C120.991 87.0192 101.368 64.7552 75.6155 61.0546V121H120.991ZM60.4905 121V61.0546C34.7377 64.7552 15.1155 87.0293 15.1155 113.438V121H60.4905Z" fill="#100F10"/>
</g>
<defs>
<clipPath id="clip0">
<rect width="242" height="242" fill="white"/>
</clipPath>
</defs>
</svg>
