<svg width="240" height="240" viewBox="0 0 240 240" fill="none" xmlns="http://www.w3.org/2000/svg">
<path d="M202.49 150H118.59C119.44 147.63 119.99 145.1 119.99 142.44C119.99 130.04 109.9 119.94 97.49 119.94H81.1C81.09 119.94 81.08 119.94 81.07 119.94C76.62 119.94 72.32 118.64 68.63 116.2L57.47 108.75C53.78 106.3 49.49 105.01 45.04 105C61.56 104.97 74.99 91.53 74.99 75C74.99 58.46 61.53 45 44.99 45C28.45 45 14.99 58.46 14.99 75C14.99 91.52 28.41 104.95 44.91 104.99C32.54 105.04 22.5 115.12 22.5 127.5V187.5C22.5 190.14 23.04 192.64 23.88 195H14.99C10.85 195 7.48999 198.36 7.48999 202.5C7.48999 206.64 10.85 210 14.99 210H29.99V232.5C29.99 236.64 33.35 240 37.49 240C41.63 240 44.99 236.64 44.99 232.5V210C44.99 210 44.99 210 45 210H64C66.84 210 69.39 211.58 70.66 214.14L77.36 227.56C81.2 235.23 88.91 240 97.49 240C97.5 240 97.51 240 97.53 240L97.52 232.5L97.56 240C101.02 240 104.49 239.18 107.61 237.63C118.7 232.07 123.22 218.53 117.67 207.43L110.97 194.04C102.58 177.12 86.13 166.27 67.5 165.1V163.59C71.98 164.51 76.41 164.97 81.12 164.94H97.2C97.3 164.94 97.39 165 97.49 165H142.49V232.5C142.49 236.64 145.85 240 149.99 240C154.13 240 157.49 236.64 157.49 232.5V165H202.49C206.63 165 209.99 161.64 209.99 157.5C209.99 153.36 206.63 150 202.49 150ZM29.99 75C29.99 66.73 36.72 60 44.99 60C53.26 60 59.99 66.73 59.99 75C59.99 83.27 53.26 90 44.99 90C36.72 90 29.99 83.27 29.99 75ZM81.09 149.94C74.97 149.77 68.57 148.85 62.62 146.63C60.32 145.78 57.74 146.1 55.72 147.5C53.7 148.91 52.5 151.2 52.5 153.66V172.5C52.5 176.64 55.86 180 60 180H64.02C78.08 180.01 91.17 187.89 97.54 200.73L104.25 214.14C106.1 217.84 104.59 222.36 100.9 224.21C99.86 224.73 98.71 225 97.56 225H97.51C97.5 225 97.5 225 97.49 225C94.63 225 92.07 223.41 90.79 220.86L84.1 207.46C80.28 199.78 72.58 195 64 195H45C40.86 195 37.5 191.63 37.5 187.5V127.5C37.5 123.36 40.86 120 44.99 119.99C46.48 119.99 47.92 120.42 49.16 121.24L60.33 128.69C66.5 132.78 73.67 134.94 81.06 134.94C81.08 134.94 81.1 134.94 81.12 134.94H97.49C101.63 134.94 104.99 138.31 104.99 142.44C104.99 146.57 101.63 149.94 97.49 149.94H81.09Z" fill="#100F10"/>
<path d="M227.95 68.11C224.12 66.47 219.73 68.24 218.1 72.05L197.55 120H142.49C138.35 120 134.99 123.36 134.99 127.5C134.99 131.64 138.35 135 142.49 135H202.49C205.49 135 208.2 133.21 209.38 130.46L231.88 77.96C233.52 74.15 231.75 69.74 227.95 68.11Z" fill="#100F10"/>
<path d="M142.49 86.25C148.013 86.25 152.49 81.7728 152.49 76.25C152.49 70.7272 148.013 66.25 142.49 66.25C136.967 66.25 132.49 70.7272 132.49 76.25C132.49 81.7728 136.967 86.25 142.49 86.25Z" fill="#100F10"/>
<path d="M169 55.98C170.92 55.98 172.85 55.25 174.31 53.78C177.23 50.85 177.23 46.1 174.3 43.17C156.76 25.66 128.23 25.66 110.7 43.17C107.77 46.1 107.77 50.85 110.69 53.78C113.62 56.72 118.38 56.71 121.3 53.79C132.99 42.12 152.02 42.12 163.7 53.79C165.17 55.25 167.09 55.98 169 55.98Z" fill="#100F10"/>
<path d="M100.06 32.57C111.4 21.24 126.46 15 142.49 15C158.52 15 173.58 21.24 184.91 32.57C186.37 34.03 188.29 34.77 190.21 34.77C192.13 34.77 194.05 34.04 195.51 32.57C198.44 29.64 198.44 24.89 195.51 21.96C181.36 7.8 162.52 0 142.49 0C122.46 0 103.62 7.8 89.46 21.97C86.53 24.9 86.53 29.65 89.46 32.58C92.39 35.51 97.13 35.5 100.06 32.57Z" fill="#100F10"/>
</svg>
