<svg width="273" height="273" viewBox="0 0 273 273" fill="none" xmlns="http://www.w3.org/2000/svg">
<g clip-path="url(#clip0)">
<path d="M68.2371 273C63.5278 273 59.7058 269.178 59.7058 264.469C59.7058 259.759 63.5278 255.938 68.2371 255.938H86.6077L92.2952 221.812H42.6433C19.1198 221.812 -0.0129089 202.68 -0.0129089 179.156V42.6562C-0.0129089 19.1327 19.1198 0 42.6433 0H230.331C253.854 0 272.987 19.1327 272.987 42.6562V179.156C272.987 202.68 253.854 221.812 230.331 221.812H180.679L186.366 255.938H204.737C209.446 255.938 213.268 259.759 213.268 264.469C213.268 269.178 209.446 273 204.737 273H68.2371ZM169.076 255.938L163.389 221.812H109.585L103.898 255.938H169.076ZM18.5511 187.688C22.1115 197.686 31.7233 204.75 42.6433 204.75H230.331C241.251 204.75 250.863 197.686 254.423 187.688H18.5511ZM255.925 170.625V42.6562C255.925 28.5399 244.447 17.0625 230.331 17.0625H42.6433C28.527 17.0625 17.0496 28.5399 17.0496 42.6562V170.625H255.925Z" fill="white"/>
</g>
<defs>
<clipPath id="clip0">
<rect width="273" height="273" fill="white"/>
</clipPath>
</defs>
</svg>
